# xmcd CD database file
#
# Track frame offsets:
#	150
#	11862
#	36901
#	56002
#	72831
#	95577
#	117592
#
# Disc length: 1839 seconds
#
# Revision: 0
# Processed by: cddbd v1.5.1PL2 Copyright (c) Steve Scherf et al.
# Submitted via: CDex 1.51
#
DISCID=62072d07
DTITLE=Jai Alai - Division E.P.
DYEAR=2000
DGENRE=Jazz
TTITLE0=84 Sold
TTITLE1=Parking Lots
TTITLE2=Antilles
TTITLE3=No Va
TTITLE4=Jacknife
TTITLE5=Crawling Of Turn
TTITLE6=Christmas In July
EXTD=YEAR: 2000
EXTT0=
EXTT1=
EXTT2=
EXTT3=
EXTT4=
EXTT5=
EXTT6=
PLAYORDER=
